<mxfile host="65bd71144e">
    <diagram id="7QXH1sRxgtqFT6DofGkj" name="Page-1">
        <mxGraphModel dx="1449" dy="704" grid="1" gridSize="10" guides="1" tooltips="1" connect="1" arrows="1" fold="1" page="1" pageScale="1" pageWidth="827" pageHeight="1169" math="0" shadow="0">
            <root>
                <mxCell id="0"/>
                <mxCell id="1" parent="0"/>
                <mxCell id="2" value="" style="sketch=0;pointerEvents=1;shadow=0;dashed=0;html=1;strokeColor=none;fillColor=#434445;aspect=fixed;labelPosition=center;verticalLabelPosition=bottom;verticalAlign=top;align=center;outlineConnect=0;shape=mxgraph.vvd.cpu;" parent="1" vertex="1">
                    <mxGeometry x="100" y="200" width="120" height="120" as="geometry"/>
                </mxCell>
                <mxCell id="3" value="ADD&lt;br&gt;MUL&lt;br&gt;DIV" style="text;html=1;align=center;verticalAlign=middle;resizable=0;points=[];autosize=1;strokeColor=none;fillColor=none;" parent="1" vertex="1">
                    <mxGeometry x="140" y="235" width="40" height="50" as="geometry"/>
                </mxCell>
                <mxCell id="4" value="" style="sketch=0;pointerEvents=1;shadow=0;dashed=0;html=1;strokeColor=none;fillColor=#434445;aspect=fixed;labelPosition=center;verticalLabelPosition=bottom;verticalAlign=top;align=center;outlineConnect=0;shape=mxgraph.vvd.cpu;" parent="1" vertex="1">
                    <mxGeometry x="620" y="205" width="120" height="120" as="geometry"/>
                </mxCell>
                <mxCell id="5" value="ADD&lt;br&gt;MUL&lt;br&gt;DIV" style="text;html=1;align=center;verticalAlign=middle;resizable=0;points=[];autosize=1;strokeColor=none;fillColor=none;" parent="1" vertex="1">
                    <mxGeometry x="660" y="240" width="40" height="50" as="geometry"/>
                </mxCell>
                <mxCell id="6" value="" style="pointerEvents=1;shadow=0;dashed=0;html=1;strokeColor=none;fillColor=#4495D1;labelPosition=center;verticalLabelPosition=bottom;verticalAlign=top;align=center;outlineConnect=0;shape=mxgraph.veeam.ram;" parent="1" vertex="1">
                    <mxGeometry x="810" y="232.5" width="124" height="75" as="geometry"/>
                </mxCell>
                <mxCell id="8" value="" style="verticalLabelPosition=bottom;html=1;verticalAlign=top;align=center;strokeColor=none;fillColor=#00BEF2;shape=mxgraph.azure.vhd;pointerEvents=1;" parent="1" vertex="1">
                    <mxGeometry x="1350" y="230" width="70" height="72.5" as="geometry"/>
                </mxCell>
                <mxCell id="9" value="" style="sketch=0;pointerEvents=1;shadow=0;dashed=0;html=1;strokeColor=none;fillColor=#434445;aspect=fixed;labelPosition=center;verticalLabelPosition=bottom;verticalAlign=top;align=center;outlineConnect=0;shape=mxgraph.vvd.cpu;" parent="1" vertex="1">
                    <mxGeometry x="1160" y="205" width="120" height="120" as="geometry"/>
                </mxCell>
                <mxCell id="10" value="ADD&lt;br&gt;MUL&lt;br&gt;DIV" style="text;html=1;align=center;verticalAlign=middle;resizable=0;points=[];autosize=1;strokeColor=none;fillColor=none;" parent="1" vertex="1">
                    <mxGeometry x="1200" y="240" width="40" height="50" as="geometry"/>
                </mxCell>
                <mxCell id="16" value="&lt;font style=&quot;font-size: 15px&quot;&gt;RAM&lt;/font&gt;" style="text;html=1;align=center;verticalAlign=middle;resizable=0;points=[];autosize=1;strokeColor=none;fillColor=none;" parent="1" vertex="1">
                    <mxGeometry x="847" y="212.5" width="50" height="20" as="geometry"/>
                </mxCell>
                <mxCell id="17" value="&lt;font style=&quot;font-size: 15px&quot;&gt;Flash&lt;/font&gt;" style="text;html=1;align=center;verticalAlign=middle;resizable=0;points=[];autosize=1;strokeColor=none;fillColor=none;" parent="1" vertex="1">
                    <mxGeometry x="1360" y="210" width="50" height="20" as="geometry"/>
                </mxCell>
                <mxCell id="18" style="edgeStyle=orthogonalEdgeStyle;html=1;strokeWidth=4;" parent="1" edge="1">
                    <mxGeometry relative="1" as="geometry">
                        <mxPoint x="1291" y="285" as="sourcePoint"/>
                        <mxPoint x="1348" y="285" as="targetPoint"/>
                        <Array as="points">
                            <mxPoint x="1291" y="285"/>
                        </Array>
                    </mxGeometry>
                </mxCell>
                <mxCell id="19" style="html=1;edgeStyle=orthogonalEdgeStyle;strokeWidth=4;" parent="1" edge="1">
                    <mxGeometry relative="1" as="geometry">
                        <mxPoint x="1344" y="255" as="sourcePoint"/>
                        <mxPoint x="1289" y="255" as="targetPoint"/>
                    </mxGeometry>
                </mxCell>
                <mxCell id="20" style="edgeStyle=orthogonalEdgeStyle;html=1;strokeWidth=4;" edge="1" parent="1">
                    <mxGeometry relative="1" as="geometry">
                        <mxPoint x="752" y="279.83000000000004" as="sourcePoint"/>
                        <mxPoint x="809" y="279.83000000000004" as="targetPoint"/>
                        <Array as="points">
                            <mxPoint x="752" y="279.83000000000004"/>
                        </Array>
                    </mxGeometry>
                </mxCell>
                <mxCell id="21" style="html=1;edgeStyle=orthogonalEdgeStyle;strokeWidth=4;" edge="1" parent="1">
                    <mxGeometry relative="1" as="geometry">
                        <mxPoint x="804.9999999999998" y="249.82999999999998" as="sourcePoint"/>
                        <mxPoint x="749.9999999999998" y="249.82999999999998" as="targetPoint"/>
                    </mxGeometry>
                </mxCell>
            </root>
        </mxGraphModel>
    </diagram>
</mxfile>